<svg xmlns="http://www.w3.org/2000/svg" xmlns:xlink="http://www.w3.org/1999/xlink" width="500" zoomAndPan="magnify" viewBox="0 0 375 374.999991" height="500" preserveAspectRatio="xMidYMid meet" version="1.0"><defs><filter x="0%" y="0%" width="100%" height="100%" id="09f5929667"><feColorMatrix values="0 0 0 0 1 0 0 0 0 1 0 0 0 0 1 0 0 0 1 0" color-interpolation-filters="sRGB"/></filter><g/><mask id="add5087f1d"><g filter="url(#09f5929667)"><rect x="-37.5" width="450" fill="#000000" y="-37.499999" height="449.999989" fill-opacity="0.01"/></g></mask><clipPath id="97119ed25b"><rect x="0" width="265" y="0" height="37"/></clipPath></defs><g mask="url(#add5087f1d)"><g transform="matrix(1, 0, 0, 1, 55, 169)"><g clip-path="url(#97119ed25b)"><g fill="#000000" fill-opacity="1"><g transform="translate(1.405878, 27.559228)"><g><path d="M 7.46875 0 L 7.46875 -19.171875 L 10.042969 -19.171875 L 10.042969 0 Z M 0.859375 -16.742188 L 0.859375 -19.171875 L 16.65625 -19.171875 L 16.65625 -16.742188 Z M 0.859375 -16.742188 "/></g></g></g><g fill="#000000" fill-opacity="1"><g transform="translate(18.884717, 27.559228)"><g><path d="M 0.285156 0 L 9.242188 -19.171875 L 10.53125 -19.171875 L 19.488281 0 L 16.398438 0 L 9.929688 -14.824219 L 3.375 0 Z M 4.777344 -4.578125 L 4.777344 -7.011719 L 15.394531 -7.011719 L 15.394531 -4.578125 Z M 4.777344 -4.578125 "/></g></g></g><g fill="#000000" fill-opacity="1"><g transform="translate(38.65211, 27.559228)"><g><path d="M 7.46875 0 L 7.46875 -19.171875 L 10.042969 -19.171875 L 10.042969 0 Z M 0.859375 -16.742188 L 0.859375 -19.171875 L 16.65625 -19.171875 L 16.65625 -16.742188 Z M 0.859375 -16.742188 "/></g></g></g><g fill="#000000" fill-opacity="1"><g transform="translate(56.130949, 27.559228)"><g><path d="M -0.316406 7.296875 L -1.574219 4.808594 C 1.667969 3.644531 3.289062 1.890625 3.289062 -0.457031 L 3.289062 -19.230469 L 5.867188 -19.230469 L 5.867188 -0.972656 C 5.867188 0.648438 5.597656 1.992188 5.066406 3.0625 C 4.53125 4.128906 3.800781 4.992188 2.875 5.652344 C 1.949219 6.308594 0.886719 6.859375 -0.316406 7.296875 Z M -0.316406 7.296875 "/></g></g></g><g fill="#000000" fill-opacity="1"><g transform="translate(65.142134, 27.559228)"><g><path d="M 0.285156 0 L 9.242188 -19.171875 L 10.53125 -19.171875 L 19.488281 0 L 16.398438 0 L 9.929688 -14.824219 L 3.375 0 Z M 4.777344 -4.578125 L 4.777344 -7.011719 L 15.394531 -7.011719 L 15.394531 -4.578125 Z M 4.777344 -4.578125 "/></g></g></g><g fill="#000000" fill-opacity="1"><g transform="translate(84.909528, 27.559228)"><g><path d="M 18.171875 0 L 5.722656 -13.707031 L 5.722656 0 L 3.148438 0 L 3.148438 -19.171875 L 4.121094 -19.171875 L 16.570312 -5.292969 L 16.570312 -19.171875 L 19.144531 -19.171875 L 19.144531 0 Z M 18.171875 0 "/></g></g></g><g fill="#000000" fill-opacity="1"><g transform="translate(107.194332, 27.559228)"><g><path d="M 0.285156 0 L 9.242188 -19.171875 L 10.53125 -19.171875 L 19.488281 0 L 16.398438 0 L 9.929688 -14.824219 L 3.375 0 Z M 4.777344 -4.578125 L 4.777344 -7.011719 L 15.394531 -7.011719 L 15.394531 -4.578125 Z M 4.777344 -4.578125 "/></g></g></g><g fill="#000000" fill-opacity="1"><g transform="translate(126.961725, 27.559228)"><g/></g></g><g fill="#000000" fill-opacity="1"><g transform="translate(135.543807, 27.559228)"><g><path d="M 11.53125 0.429688 C 10.082031 0.429688 8.746094 0.167969 7.527344 -0.359375 C 6.304688 -0.882812 5.238281 -1.601562 4.320312 -2.519531 C 3.40625 -3.433594 2.695312 -4.496094 2.1875 -5.710938 C 1.683594 -6.921875 1.429688 -8.214844 1.429688 -9.585938 C 1.429688 -10.960938 1.683594 -12.253906 2.1875 -13.464844 C 2.695312 -14.675781 3.40625 -15.738281 4.320312 -16.65625 C 5.238281 -17.570312 6.304688 -18.292969 7.527344 -18.816406 C 8.746094 -19.339844 10.082031 -19.601562 11.53125 -19.601562 C 12.925781 -19.601562 14.066406 -19.414062 14.953125 -19.03125 C 15.839844 -18.648438 16.617188 -18.152344 17.285156 -17.542969 L 17.285156 -14.710938 C 16.863281 -15.015625 16.394531 -15.347656 15.867188 -15.710938 C 15.34375 -16.074219 14.734375 -16.394531 14.035156 -16.667969 C 13.339844 -16.945312 12.503906 -17.085938 11.53125 -17.085938 C 10.101562 -17.085938 8.824219 -16.761719 7.699219 -16.113281 C 6.574219 -15.464844 5.683594 -14.570312 5.035156 -13.4375 C 4.386719 -12.300781 4.0625 -11.019531 4.0625 -9.585938 C 4.0625 -8.15625 4.386719 -6.878906 5.035156 -5.753906 C 5.683594 -4.625 6.574219 -3.734375 7.699219 -3.078125 C 8.824219 -2.417969 10.101562 -2.089844 11.53125 -2.089844 C 13 -2.089844 14.257812 -2.332031 15.296875 -2.820312 C 16.335938 -3.304688 17.191406 -3.804688 17.855469 -4.320312 L 17.855469 -1.746094 C 17.191406 -1.152344 16.316406 -0.644531 15.238281 -0.214844 C 14.160156 0.214844 12.925781 0.429688 11.53125 0.429688 Z M 11.53125 0.429688 "/></g></g></g><g fill="#000000" fill-opacity="1"><g transform="translate(154.824882, 27.559228)"><g><path d="M 0.285156 0 L 9.242188 -19.171875 L 10.53125 -19.171875 L 19.488281 0 L 16.398438 0 L 9.929688 -14.824219 L 3.375 0 Z M 4.777344 -4.578125 L 4.777344 -7.011719 L 15.394531 -7.011719 L 15.394531 -4.578125 Z M 4.777344 -4.578125 "/></g></g></g><g fill="#000000" fill-opacity="1"><g transform="translate(174.592276, 27.559228)"><g><path d="M 6.953125 0.285156 C 5.847656 0.285156 4.828125 0.09375 3.890625 -0.285156 C 2.957031 -0.667969 2.144531 -1.097656 1.460938 -1.574219 L 1.460938 -4.234375 C 2.203125 -3.71875 3.058594 -3.257812 4.019531 -2.847656 C 4.984375 -2.4375 6.078125 -2.230469 7.296875 -2.230469 C 8.25 -2.230469 9.089844 -2.46875 9.816406 -2.949219 C 10.539062 -3.425781 10.902344 -4.082031 10.902344 -4.921875 C 10.902344 -5.398438 10.753906 -5.808594 10.460938 -6.152344 C 10.164062 -6.496094 9.804688 -6.792969 9.386719 -7.039062 C 8.964844 -7.289062 8.554688 -7.496094 8.15625 -7.667969 L 4.980469 -9.101562 C 4.0625 -9.519531 3.347656 -9.976562 2.832031 -10.472656 C 2.316406 -10.96875 1.957031 -11.519531 1.746094 -12.121094 C 1.535156 -12.71875 1.429688 -13.375 1.429688 -14.078125 C 1.429688 -15.089844 1.722656 -16 2.304688 -16.8125 C 2.886719 -17.625 3.664062 -18.265625 4.636719 -18.746094 C 5.609375 -19.222656 6.660156 -19.460938 7.785156 -19.460938 C 8.910156 -19.460938 9.839844 -19.296875 10.574219 -18.972656 C 11.308594 -18.648438 11.953125 -18.304688 12.503906 -17.941406 L 12.503906 -15.28125 C 11.972656 -15.683594 11.324219 -16.058594 10.558594 -16.410156 C 9.796875 -16.765625 8.964844 -16.941406 8.070312 -16.941406 C 7.496094 -16.941406 6.902344 -16.839844 6.28125 -16.640625 C 5.660156 -16.441406 5.140625 -16.121094 4.722656 -15.683594 C 4.300781 -15.242188 4.09375 -14.679688 4.09375 -13.992188 C 4.09375 -13.230469 4.367188 -12.648438 4.921875 -12.25 C 5.476562 -11.847656 6.144531 -11.464844 6.925781 -11.105469 L 9.558594 -9.902344 C 10.875 -9.308594 11.867188 -8.652344 12.535156 -7.925781 C 13.203125 -7.203125 13.535156 -6.238281 13.535156 -5.035156 C 13.535156 -3.988281 13.230469 -3.066406 12.621094 -2.273438 C 12.011719 -1.484375 11.207031 -0.859375 10.214844 -0.402344 C 9.222656 0.0585938 8.136719 0.285156 6.953125 0.285156 Z M 6.953125 0.285156 "/></g></g></g><g fill="#000000" fill-opacity="1"><g transform="translate(189.553704, 27.559228)"><g><path d="M 3.148438 0 L 3.148438 -19.171875 L 16.285156 -19.171875 L 16.285156 -16.742188 L 5.722656 -16.742188 L 5.722656 -2.433594 L 16.285156 -2.433594 L 16.285156 0 Z M 4.777344 -8.613281 L 4.777344 -11.046875 L 15.054688 -11.046875 L 15.054688 -8.613281 Z M 4.777344 -8.613281 "/></g></g></g><g fill="#000000" fill-opacity="1"><g transform="translate(207.833537, 27.559228)"><g><path d="M 3.148438 0 L 3.148438 -19.171875 L 10.503906 -19.171875 C 11.324219 -19.171875 12.128906 -19.058594 12.921875 -18.832031 C 13.710938 -18.601562 14.429688 -18.253906 15.066406 -17.785156 C 15.707031 -17.316406 16.214844 -16.722656 16.597656 -15.996094 C 16.980469 -15.273438 17.171875 -14.414062 17.171875 -13.421875 C 17.171875 -12.238281 16.832031 -11.238281 16.15625 -10.417969 C 15.476562 -9.597656 14.617188 -8.980469 13.578125 -8.570312 C 12.539062 -8.160156 11.464844 -7.957031 10.359375 -7.957031 C 10.054688 -7.957031 9.675781 -7.976562 9.230469 -8.011719 C 8.78125 -8.050781 8.316406 -8.09375 7.839844 -8.140625 C 7.363281 -8.1875 6.914062 -8.246094 6.496094 -8.3125 C 6.078125 -8.378906 5.753906 -8.441406 5.523438 -8.5 L 5.523438 -10.644531 C 6.171875 -10.453125 6.886719 -10.308594 7.667969 -10.203125 C 8.453125 -10.097656 9.222656 -10.042969 9.988281 -10.042969 C 11.4375 -10.042969 12.558594 -10.351562 13.351562 -10.960938 C 14.140625 -11.570312 14.539062 -12.390625 14.539062 -13.421875 C 14.539062 -14.488281 14.105469 -15.308594 13.234375 -15.882812 C 12.367188 -16.453125 11.3125 -16.742188 10.074219 -16.742188 L 5.722656 -16.742188 L 5.722656 0 Z M 13.964844 0 L 5.238281 -8.5 L 7.296875 -9.558594 L 17.914062 0 Z M 13.964844 0 "/></g></g></g><g fill="#000000" fill-opacity="1"><g transform="translate(226.313618, 27.559228)"><g><path d="M 7.46875 0 L 7.46875 -19.171875 L 10.042969 -19.171875 L 10.042969 0 Z M 0.859375 -16.742188 L 0.859375 -19.171875 L 16.65625 -19.171875 L 16.65625 -16.742188 Z M 0.859375 -16.742188 "/></g></g></g><g fill="#000000" fill-opacity="1"><g transform="translate(243.792457, 27.559228)"><g><path d="M 0.285156 0 L 9.242188 -19.171875 L 10.53125 -19.171875 L 19.488281 0 L 16.398438 0 L 9.929688 -14.824219 L 3.375 0 Z M 4.777344 -4.578125 L 4.777344 -7.011719 L 15.394531 -7.011719 L 15.394531 -4.578125 Z M 4.777344 -4.578125 "/></g></g></g></g></g></g></svg>